<svg width="111" height="59" viewBox="0 0 111 59" fill="none" xmlns="http://www.w3.org/2000/svg">
<path d="M98.5573 13.9725C100.639 17.8006 101.035 22.6985 99.7468 28.6664C98.3591 35.125 95.5538 40.4942 91.3311 44.7737C86.355 49.7993 80.2687 52.3121 73.0723 52.3121C66.3516 52.3121 61.544 50.1134 58.6495 45.716C56.1318 41.4757 55.5668 36.1164 56.9545 29.6381C58.2035 23.7881 60.7411 18.7821 64.5673 14.6203C69.4839 9.28067 75.6297 6.61084 83.0046 6.61084C90.7165 6.61084 95.9008 9.06473 98.5573 13.9725ZM93.6506 28.7547C94.741 23.6703 94.2751 19.5772 92.253 16.4755C90.2506 13.3738 86.92 11.8229 82.2612 11.8229C77.7411 11.8229 73.7166 13.3639 70.1877 16.446C66.6787 19.5085 64.2799 24.0335 62.9912 30.0209C61.9603 34.8109 62.3172 38.855 64.0618 42.153C65.8064 45.4314 69.4245 47.0706 74.916 47.0706C80.13 47.0706 84.2932 45.2253 87.4058 41.5346C90.5381 37.8243 92.6197 33.5644 93.6506 28.7547Z" fill="#050505"/>
<path d="M52.3737 13.9725C54.4554 17.8006 54.8519 22.6985 53.5632 28.6664C52.1755 35.125 49.3703 40.4942 45.1475 44.7737C40.1714 49.7993 34.0852 52.3121 26.8887 52.3121C20.168 52.3121 15.3604 50.1134 12.466 45.716C9.94818 41.4757 9.38316 36.1164 10.7709 29.6381C12.0199 23.7881 14.5575 18.7821 18.3837 14.6203C23.3003 9.28067 29.4461 6.61084 36.821 6.61084C44.5329 6.61084 49.7172 9.06473 52.3737 13.9725ZM47.467 28.7547C48.5574 23.6703 48.0915 19.5772 46.0694 16.4755C44.0671 13.3738 40.7364 11.8229 36.0776 11.8229C31.5575 11.8229 27.533 13.3639 24.0041 16.446C20.4951 19.5085 18.0963 24.0335 16.8076 30.021C15.7767 34.8109 16.1336 38.855 17.8782 42.153C19.6228 45.4314 23.2409 47.0706 28.7324 47.0706C33.9464 47.0706 38.1096 45.2253 41.2222 41.5346C44.3545 37.8243 46.4361 33.5644 47.467 28.7547Z" fill="#050505"/>
<path d="M12.107 59C4.4891 55.5651 0 46.8094 0 36.3699C0 22.024 8.97825 3.03082 24.5541 0L24.9622 2.49201C11.3588 6.06165 5.3053 26.1998 5.3053 38.6598C5.3053 47.2808 8.16203 53.7466 13.4674 56.8447L12.107 59Z" fill="#050505"/>
<path d="M85.5957 56.508C99.1991 52.9384 105.253 32.8002 105.253 20.3402C105.253 11.7192 102.396 5.25342 97.0906 2.15525L98.4509 0C106.069 3.43493 110.626 12.1906 110.626 22.6301C110.626 36.976 101.58 55.9692 86.0038 59L85.5957 56.508Z" fill="#050505"/>
<path d="M30.6203 34.2242C30.4578 35.4228 31.247 36.5605 32.4105 36.7643C32.6184 36.8007 32.8421 36.7982 33.0624 36.7744C33.3644 36.7418 33.6031 36.5477 33.7315 36.3081C34.5294 34.8199 35.3639 33.5284 36.336 32.3729C36.4691 32.2148 36.7128 32.256 36.7846 32.4515C37.3077 33.8753 37.6675 35.3819 37.9035 37.0559C37.939 37.3075 38.0808 37.5671 38.3465 37.7005C38.5414 37.7984 38.7571 37.8759 38.9841 37.9156C40.1476 38.1194 41.2831 37.3188 41.5457 36.1377C41.6114 35.8423 41.4917 35.5672 41.3166 35.3843C40.1544 34.1705 39.2042 32.9462 38.4192 31.6468C38.3125 31.4701 38.4291 31.2533 38.6346 31.2434C40.1425 31.1703 41.6653 31.2829 43.3166 31.584C43.5619 31.6287 43.8526 31.5802 44.0643 31.3712C45.1429 30.3062 44.8605 28.5599 43.5877 27.8167C43.3168 27.6586 43.0059 27.696 42.7726 27.8181C41.3011 28.5884 39.8474 29.1319 38.3834 29.4999C38.1809 29.5508 38.0072 29.3738 38.061 29.1737C38.4578 27.6976 39.0345 26.2752 39.831 24.7986C39.9481 24.5816 39.9914 24.297 39.8665 24.0354C39.55 23.3727 38.9747 22.9312 38.2744 22.8086C37.5742 22.6859 36.8809 22.9052 36.354 23.4202C36.1461 23.6235 36.088 23.9056 36.1232 24.1495C36.3629 25.8129 36.4344 27.3512 36.3027 28.8743C36.2851 29.0783 36.0639 29.1857 35.8919 29.0706C34.6255 28.2233 33.4594 27.2177 32.3129 25.9812C32.1354 25.7897 31.856 25.6512 31.5479 25.7107C30.1289 25.9846 29.2684 27.5172 29.8688 28.8705C29.9919 29.1481 30.2537 29.2978 30.5046 29.34C32.161 29.6187 33.6526 30.0343 35.0502 30.6162C35.2396 30.695 35.2742 30.9379 35.1127 31.0676C33.9253 32.0216 32.6086 32.8489 31.0964 33.5943C30.8686 33.7066 30.6609 33.9243 30.6203 34.2242Z" fill="#050505" stroke="#050505" stroke-width="0.61178"/>
<path d="M77.0034 35.8748C78.2194 35.9329 79.3019 35.0576 79.4056 33.8834C79.4241 33.6747 79.402 33.4541 79.3589 33.2392C79.2992 32.9415 79.084 32.7228 78.8339 32.6181C77.2702 31.9632 75.9002 31.255 74.6546 30.4002C74.4828 30.2823 74.5033 30.0332 74.6949 29.9448C76.0788 29.3064 77.5602 28.8208 79.2201 28.4422C79.4675 28.3857 79.7153 28.223 79.827 27.9469C79.9083 27.7459 79.9674 27.526 79.9875 27.2982C80.0912 26.124 79.1787 25.0759 77.9711 24.9239C77.6745 24.8866 77.4128 25.0268 77.245 25.2147C76.1217 26.4722 74.9691 27.5201 73.7254 28.4106C73.5583 28.5303 73.3348 28.4338 73.3067 28.2323C73.1005 26.7519 73.0799 25.2405 73.2375 23.5859C73.2614 23.3348 73.1861 23.0464 72.9551 22.8547C71.797 21.8935 70.0749 22.3154 69.4346 23.6329C69.2947 23.9208 69.3613 24.2327 69.5069 24.4558C70.4068 25.8343 71.0788 27.2152 71.5762 28.6212C71.6458 28.8177 71.4847 29.0084 71.2793 28.973C69.7558 28.7106 68.2709 28.2653 66.7119 27.607C66.4887 27.5127 66.207 27.4958 65.9599 27.6381C65.3183 28.0075 64.9204 28.6161 64.8579 29.3233C64.7955 30.0305 65.0805 30.6982 65.6476 31.1724C65.866 31.355 66.1464 31.3869 66.383 31.3321C68.0394 30.9484 69.5842 30.7424 71.1319 30.739C71.3381 30.7385 71.463 30.9506 71.3615 31.1316C70.6223 32.4493 69.7161 33.683 68.5775 34.9177C68.3976 35.1128 68.2796 35.4086 68.3698 35.7149C68.7746 37.088 70.3836 37.7915 71.6831 37.0881C71.9538 36.9416 72.0835 36.6646 72.1044 36.4082C72.2399 34.7505 72.5276 33.2435 72.9908 31.8145C73.0534 31.6211 73.2901 31.5644 73.4338 31.711C74.5024 32.8019 75.4537 34.0321 76.3393 35.4636C76.4717 35.6775 76.7049 35.8606 77.0034 35.8748Z" fill="#050505" stroke="#050505" stroke-width="0.61178"/>
</svg>
