<svg width="111" height="59" viewBox="0 0 111 59" fill="none" xmlns="http://www.w3.org/2000/svg">
<path d="M12.1069 58.9999C4.48909 55.565 0 46.8093 0 36.3698C0 22.0239 8.97822 3.03082 24.554 0L24.9621 2.492C11.3588 6.06164 5.30528 26.1997 5.30528 38.6598C5.30528 47.2807 8.162 53.7465 13.4673 56.8447L12.1069 58.9999Z" fill="#050505"/>
<path d="M85.5957 56.5079C99.199 52.9383 105.252 32.8002 105.252 20.3402C105.252 11.7192 102.396 5.25342 97.0905 2.15525L98.4508 0C106.069 3.43493 110.626 12.1906 110.626 22.6301C110.626 36.976 101.58 55.9691 86.0038 58.9999L85.5957 56.5079Z" fill="#050505"/>
<path d="M42.0995 31.5075L16.873 43.5171V38.7869L37.4815 29.2738L16.873 19.7869V15.0566L42.0995 27.0926V31.5075Z" fill="#050505"/>
<path d="M84.1834 29.5636C84.1834 33.417 80.8212 36.5408 76.6737 36.5408C72.5262 36.5408 69.1641 33.417 69.1641 29.5636C69.1641 25.7102 72.5262 22.5864 76.6737 22.5864C80.8212 22.5864 84.1834 25.7102 84.1834 29.5636Z" fill="#050505"/>
<path d="M99.8919 14.461C101.749 17.8753 102.103 22.2438 100.953 27.5666C99.715 33.3272 97.2124 38.1159 93.4452 41.9329C89.0059 46.4153 83.5762 48.6565 77.1561 48.6565C71.1604 48.6565 66.8714 46.6954 64.2892 42.7734C62.0431 38.9914 61.539 34.2114 62.7771 28.4333C63.8913 23.2156 66.1552 18.7507 69.5686 15.0388C73.9548 10.2763 79.4376 7.89502 86.0169 7.89502C92.8969 7.89502 97.5219 10.0837 99.8919 14.461ZM95.5145 27.6454C96.4872 23.1105 96.0716 19.4599 94.2676 16.6934C92.4813 13.9269 89.51 12.5437 85.3537 12.5437C81.3212 12.5437 77.7309 13.9182 74.5827 16.6671C71.4522 19.3986 69.3122 23.4344 68.1626 28.7748C67.2429 33.047 67.5612 36.6539 69.1176 39.5955C70.674 42.5195 73.9018 43.9815 78.8009 43.9815C83.4524 43.9815 87.1665 42.3357 89.9433 39.0439C92.7377 35.7347 94.5948 31.9352 95.5145 27.6454Z" fill="#050505"/>
<path d="M38.1711 41.2405L37.9281 40.981L37.8573 41.3293L37.5828 42.6795L37.5657 42.7634L37.6191 42.8305C39.3845 45.0472 40.7544 46.6038 41.7256 47.4923C43.2351 48.8843 45.0397 50.0279 47.1372 50.9242L47.1372 50.9242C47.9413 51.2674 48.7922 51.5471 49.6897 51.7635C50.5896 51.9882 51.5203 52.1155 52.4815 52.1458L52.4815 52.1458C53.2522 52.1698 53.8712 52.151 54.3341 52.087C54.7967 52.0254 56.0091 51.8029 57.963 51.4218L58.0832 51.3984L58.1076 51.2783L58.3755 49.9607L58.4255 49.7148L58.1759 49.7416C56.0075 49.9747 54.3788 50.0472 53.2828 49.9634L53.2822 49.9633C51.4997 49.8328 49.6003 49.3408 47.583 48.4828C45.565 47.6165 43.8607 46.6148 42.4674 45.4793C41.5474 44.729 40.1167 43.3186 38.1711 41.2405Z" fill="#050505" stroke="#050505" stroke-width="0.367068"/>
</svg>
