<svg width="641" height="99" viewBox="0 0 641 99" fill="none" xmlns="http://www.w3.org/2000/svg">
<path d="M246.209 23.398C249.695 29.8084 250.359 38.0104 248.201 48.004C245.877 58.8195 241.18 67.8105 234.108 74.977C225.776 83.3927 215.584 87.6005 203.532 87.6005C192.278 87.6005 184.228 83.9187 179.381 76.5549C175.164 69.4542 174.218 60.4796 176.542 49.6313C178.634 39.8349 182.883 31.4521 189.29 24.4828C197.524 15.5412 207.815 11.0703 220.165 11.0703C233.079 11.0703 241.761 15.1795 246.209 23.398ZM237.993 48.152C239.818 39.6377 239.038 32.7835 235.652 27.5894C232.299 22.3953 226.722 19.7983 218.92 19.7983C211.351 19.7983 204.611 22.3789 198.702 27.5401C192.826 32.6684 188.809 40.2458 186.651 50.2723C184.925 58.2935 185.522 65.0655 188.444 70.5883C191.365 76.0783 197.424 78.8232 206.62 78.8232C215.351 78.8232 222.323 75.7331 227.535 69.5528C232.78 63.3397 236.266 56.2061 237.993 48.152Z" fill="#1A1A1D"/>
<path d="M164.211 23.398C167.697 29.8084 168.361 38.0104 166.203 48.004C163.879 58.8195 159.181 67.8105 152.11 74.977C143.777 83.3927 133.585 87.6005 121.534 87.6005C110.28 87.6005 102.229 83.9187 97.3823 76.5549C93.1661 69.4542 92.2199 60.4797 94.5438 49.6313C96.6353 39.8349 100.885 31.4521 107.292 24.4828C115.525 15.5412 125.817 11.0703 138.167 11.0703C151.081 11.0703 159.762 15.1795 164.211 23.398ZM155.994 48.152C157.82 39.6377 157.04 32.7835 153.654 27.5894C150.301 22.3953 144.723 19.7983 136.922 19.7983C129.352 19.7983 122.613 22.3789 116.704 27.5401C110.828 32.6684 106.811 40.2458 104.653 50.2723C102.926 58.2935 103.524 65.0655 106.445 70.5883C109.367 76.0783 115.426 78.8232 124.622 78.8232C133.353 78.8232 140.325 75.7331 145.537 69.5528C150.782 63.3397 154.268 56.2061 155.994 48.152Z" fill="#1A1A1D"/>
<path d="M96.7799 98.8C84.0232 93.0479 76.5059 78.3858 76.5059 60.9041C76.5059 36.8808 91.5406 5.07534 117.624 0L118.307 4.17306C95.5271 10.1507 85.39 43.8735 85.39 64.7388C85.39 79.1753 90.1738 90.0027 99.058 95.1909L96.7799 98.8Z" fill="#1A1A1D"/>
<path d="M226.661 94.6269C249.441 88.6493 259.578 54.9265 259.578 34.0612C259.578 19.6247 254.794 8.79726 245.91 3.60913L248.188 0C260.945 5.75205 268.576 20.4142 268.576 37.8959C268.576 61.9192 253.427 93.7247 227.344 98.8L226.661 94.6269Z" fill="#1A1A1D"/>
<path d="M144.168 54.2617L144.469 53.568L144.168 54.2617C144.446 54.3815 144.747 54.4768 145.062 54.532C147.06 54.8819 148.996 53.5799 149.564 51.6297C149.786 50.8701 149.454 50.1685 149.036 49.7276C147.35 47.9489 145.938 46.1566 144.744 44.2775C144.479 43.8593 144.755 43.3481 145.247 43.3358C147.454 43.2808 149.697 43.4644 152.105 43.891C152.693 43.9953 153.449 43.8933 153.966 43.3122C155.609 41.4668 155.161 38.6658 153.175 37.3212C152.496 36.8613 151.695 36.9839 151.134 37.2728C148.992 38.377 146.872 39.193 144.743 39.7787C144.26 39.9117 143.851 39.4926 143.99 39.0171C144.621 36.8744 145.487 34.7855 146.637 32.6274C146.916 32.105 147.05 31.3746 146.683 30.7129C146.1 29.6602 145.125 28.9592 143.959 28.755C142.793 28.5507 141.634 28.878 140.722 29.6688C140.148 30.1658 140.02 30.8975 140.102 31.484C140.441 33.9149 140.562 36.1829 140.425 38.4152C140.395 38.9027 139.875 39.157 139.469 38.8717C137.648 37.5906 135.944 36.0969 134.266 34.3067C133.838 33.8504 133.126 33.4681 132.331 33.6785C130.059 34.2806 128.688 36.7297 129.515 38.9915C129.788 39.7383 130.479 40.1043 131.08 40.2085C133.492 40.627 135.691 41.222 137.758 42.0261C138.216 42.2038 138.298 42.7768 137.904 43.0794C136.132 44.4392 134.184 45.6429 131.984 46.741C131.439 47.0132 130.885 47.5596 130.83 48.3484C130.688 50.3734 132.056 52.254 134.054 52.604C134.345 52.6549 134.647 52.6631 134.941 52.6459C135.726 52.6003 136.321 52.0873 136.633 51.5104C137.801 49.3537 139.017 47.4509 140.393 45.7314C140.701 45.3462 141.275 45.4415 141.436 45.9143C142.154 48.0156 142.668 50.236 143.023 52.672C143.111 53.2771 143.456 53.9557 144.168 54.2617Z" fill="#1A1A1D" stroke="#1A1A1D" stroke-width="1.5111"/>
<path d="M227.411 54.3024C229.453 54.2723 231.243 52.7634 231.421 50.7411C231.447 50.4494 231.429 50.1511 231.386 49.8626C231.271 49.0842 230.705 48.5421 230.103 48.2871C227.839 47.3281 225.824 46.3001 223.979 45.0994C223.562 44.8282 223.608 44.2426 224.072 44.0412C226.117 43.1542 228.299 42.4555 230.71 41.8945C231.305 41.7561 231.955 41.3559 232.203 40.6199C232.299 40.3346 232.368 40.0296 232.396 39.7138C232.574 37.6916 231.077 35.8978 229.071 35.5171C228.305 35.3716 227.64 35.7535 227.235 36.2027C225.584 38.0332 223.894 39.5919 222.096 40.9399C221.701 41.2361 221.174 41.0065 221.118 40.5238C220.868 38.3525 220.855 36.1256 221.072 33.7146C221.126 33.1121 220.955 32.3603 220.32 31.8992C218.339 30.4613 215.585 31.1285 214.398 33.1941C213.98 33.9208 214.179 34.7236 214.524 35.2595C215.814 37.2632 216.814 39.2694 217.587 41.3041C217.765 41.7711 217.384 42.2214 216.894 42.1254C214.674 41.6903 212.489 41.0156 210.208 40.0656C209.671 39.8418 208.946 39.7767 208.325 40.1847C207.309 40.8512 206.68 41.8811 206.575 43.063C206.471 44.2449 206.91 45.3673 207.793 46.1983C208.334 46.7069 209.059 46.7679 209.628 46.6385C212.054 46.0877 214.333 45.7687 216.6 45.7083C217.093 45.6952 217.387 46.1942 217.134 46.6211C216.011 48.5165 214.665 50.3169 213.023 52.1179C212.595 52.5873 212.263 53.3454 212.556 54.1292C213.371 56.3088 215.935 57.4222 218.115 56.4241C218.847 56.0889 219.16 55.3608 219.214 54.7465C219.424 52.3321 219.831 50.1124 220.459 48.0038C220.597 47.5387 221.156 47.4028 221.493 47.7625C223.027 49.3992 224.418 51.2248 225.723 53.3114C226.044 53.8236 226.631 54.3139 227.411 54.3024Z" fill="#1A1A1D" stroke="#1A1A1D" stroke-width="1.5111"/>
<mask id="path-7-inside-1_847_12613" fill="white">
<path fill-rule="evenodd" clip-rule="evenodd" d="M309.423 1.21094C299.666 1.21094 291.756 9.12069 291.756 18.8778V55.6325C291.756 65.3897 299.666 73.2994 309.423 73.2994H404.114L427.636 97.5894L451.158 73.2994H546.827C556.585 73.2994 564.494 65.3897 564.494 55.6325V18.8778C564.494 9.12068 556.585 1.21094 546.827 1.21094H309.423Z"/>
</mask>
<path fill-rule="evenodd" clip-rule="evenodd" d="M309.423 1.21094C299.666 1.21094 291.756 9.12069 291.756 18.8778V55.6325C291.756 65.3897 299.666 73.2994 309.423 73.2994H404.114L427.636 97.5894L451.158 73.2994H546.827C556.585 73.2994 564.494 65.3897 564.494 55.6325V18.8778C564.494 9.12068 556.585 1.21094 546.827 1.21094H309.423Z" fill="white"/>
<path d="M404.114 73.2994L405.551 71.9081L404.962 71.2994H404.114V73.2994ZM427.636 97.5894L426.199 98.9807L427.636 100.464L429.073 98.9807L427.636 97.5894ZM451.158 73.2994V71.2994H450.311L449.721 71.9081L451.158 73.2994ZM293.756 18.8778C293.756 10.2253 300.77 3.21094 309.423 3.21094V-0.789062C298.561 -0.789062 289.756 8.01612 289.756 18.8778H293.756ZM293.756 55.6325V18.8778H289.756V55.6325H293.756ZM309.423 71.2994C300.77 71.2994 293.756 64.2851 293.756 55.6325H289.756C289.756 66.4942 298.561 75.2994 309.423 75.2994V71.2994ZM404.114 71.2994H309.423V75.2994H404.114V71.2994ZM402.678 74.6907L426.199 98.9807L429.073 96.1981L405.551 71.9081L402.678 74.6907ZM429.073 98.9807L452.595 74.6907L449.721 71.9081L426.199 96.1981L429.073 98.9807ZM546.827 71.2994H451.158V75.2994H546.827V71.2994ZM562.494 55.6325C562.494 64.2851 555.48 71.2994 546.827 71.2994V75.2994C557.689 75.2994 566.494 66.4942 566.494 55.6325H562.494ZM562.494 18.8778V55.6325H566.494V18.8778H562.494ZM546.827 3.21094C555.48 3.21094 562.494 10.2252 562.494 18.8778H566.494C566.494 8.01611 557.689 -0.789062 546.827 -0.789062V3.21094ZM309.423 3.21094H546.827V-0.789062H309.423V3.21094Z" fill="#1A1A1D" mask="url(#path-7-inside-1_847_12613)"/>
<path d="M323.522 31.4359C322.298 31.4359 321.242 31.1749 320.354 30.6529C319.472 30.1309 318.797 29.3779 318.329 28.3939C317.861 27.4099 317.627 26.2429 317.627 24.8929C317.627 23.5789 317.864 22.4329 318.338 21.4549C318.818 20.4709 319.499 19.7149 320.381 19.1869C321.269 18.6529 322.313 18.3859 323.513 18.3859C324.863 18.3859 326.003 18.7309 326.933 19.4209C327.863 20.1049 328.475 21.2059 328.769 22.7239L328.778 22.7779C328.778 22.8859 328.715 22.9399 328.589 22.9399H327.311C327.197 22.9399 327.125 22.8799 327.095 22.7599C326.903 21.7339 326.492 20.9689 325.862 20.4649C325.232 19.9609 324.44 19.7089 323.486 19.7089C322.622 19.7089 321.884 19.9189 321.272 20.3389C320.66 20.7589 320.192 21.3589 319.868 22.1389C319.55 22.9129 319.391 23.8309 319.391 24.8929C319.391 26.0269 319.553 26.9839 319.877 27.7639C320.201 28.5439 320.669 29.1319 321.281 29.5279C321.893 29.9179 322.625 30.1129 323.477 30.1129C324.521 30.1129 325.364 29.8279 326.006 29.2579C326.648 28.6879 327.035 27.8659 327.167 26.7919C327.185 26.6659 327.257 26.6029 327.383 26.6029H328.679C328.739 26.6029 328.784 26.6179 328.814 26.6479C328.85 26.6779 328.868 26.7199 328.868 26.7739C328.868 26.8039 328.865 26.8279 328.859 26.8459C328.619 28.3759 328.034 29.5249 327.104 30.2929C326.18 31.0549 324.986 31.4359 323.522 31.4359ZM334.622 31.4179C333.692 31.4179 332.897 31.2199 332.237 30.8239C331.577 30.4279 331.073 29.8669 330.725 29.1409C330.383 28.4149 330.212 27.5659 330.212 26.5939C330.212 25.6159 330.383 24.7639 330.725 24.0379C331.073 23.3059 331.577 22.7389 332.237 22.3369C332.903 21.9349 333.698 21.7339 334.622 21.7339C335.546 21.7339 336.338 21.9319 336.998 22.3279C337.658 22.7239 338.159 23.2879 338.501 24.0199C338.843 24.7459 339.014 25.5949 339.014 26.5669C339.014 27.5449 338.843 28.3999 338.501 29.1319C338.159 29.8579 337.658 30.4219 336.998 30.8239C336.338 31.2199 335.546 31.4179 334.622 31.4179ZM334.622 30.2659C335.51 30.2659 336.176 29.9509 336.62 29.3209C337.07 28.6909 337.295 27.7819 337.295 26.5939C337.295 25.4119 337.067 24.4999 336.611 23.8579C336.161 23.2099 335.495 22.8859 334.613 22.8859C333.719 22.8919 333.047 23.2159 332.597 23.8579C332.147 24.4999 331.922 25.4149 331.922 26.6029C331.922 27.7849 332.15 28.6909 332.606 29.3209C333.062 29.9509 333.734 30.2659 334.622 30.2659ZM345.186 22.3369C345.996 22.3369 346.683 22.5289 347.247 22.9129C347.817 23.2969 348.243 23.8249 348.525 24.4969C348.807 25.1689 348.948 25.9339 348.948 26.7919C348.948 27.7099 348.777 28.5169 348.435 29.2129C348.093 29.9029 347.601 30.4399 346.959 30.8239C346.317 31.2019 345.558 31.3909 344.682 31.3909C343.758 31.3909 342.981 31.1689 342.351 30.7249C341.721 30.2809 341.247 29.6419 340.929 28.8079C340.617 27.9739 340.461 26.9749 340.461 25.8109C340.461 23.8669 340.767 22.3519 341.379 21.2659C341.991 20.1799 342.972 19.4959 344.322 19.2139C344.568 19.1599 344.877 19.1059 345.249 19.0519C345.627 18.9979 346.002 18.9499 346.374 18.9079C347.274 18.7999 347.91 18.7099 348.282 18.6379H348.318C348.438 18.6379 348.498 18.7009 348.498 18.8269V19.7269C348.498 19.8529 348.441 19.9249 348.327 19.9429C347.889 20.0389 347.214 20.1379 346.302 20.2399C345.456 20.3419 344.871 20.4289 344.547 20.5009C343.659 20.6989 343.011 21.1339 342.603 21.8059C342.195 22.4719 341.949 23.3749 341.865 24.5149C342.153 23.8429 342.573 23.3119 343.125 22.9219C343.677 22.5319 344.364 22.3369 345.186 22.3369ZM344.691 30.2389C345.507 30.2389 346.137 29.9449 346.581 29.3569C347.031 28.7629 347.256 27.9409 347.256 26.8909C347.256 25.8349 347.04 25.0069 346.608 24.4069C346.182 23.8009 345.57 23.4979 344.772 23.4979C344.244 23.4979 343.785 23.6299 343.395 23.8939C343.005 24.1579 342.702 24.5449 342.486 25.0549C342.276 25.5649 342.171 26.1769 342.171 26.8909C342.171 27.5629 342.267 28.1509 342.459 28.6549C342.651 29.1529 342.936 29.5429 343.314 29.8249C343.692 30.1009 344.151 30.2389 344.691 30.2389ZM355.209 21.7519C356.019 21.7519 356.712 21.9619 357.288 22.3819C357.864 22.7959 358.299 23.3659 358.593 24.0919C358.893 24.8179 359.043 25.6369 359.043 26.5489C359.043 27.4489 358.887 28.2679 358.575 29.0059C358.269 29.7379 357.825 30.3199 357.243 30.7519C356.661 31.1779 355.974 31.3909 355.182 31.3909C354.528 31.3909 353.958 31.2529 353.472 30.9769C352.986 30.6949 352.593 30.2869 352.293 29.7529L352.329 34.0729C352.329 34.2049 352.263 34.2709 352.131 34.2709H350.799C350.667 34.2709 350.601 34.2049 350.601 34.0729L350.673 27.1519L350.61 22.1389C350.61 22.0069 350.673 21.9409 350.799 21.9409H352.095C352.227 21.9409 352.293 22.0099 352.293 22.1479L352.248 23.4979C352.56 22.9459 352.965 22.5169 353.463 22.2109C353.967 21.9049 354.549 21.7519 355.209 21.7519ZM354.75 30.2299C355.608 30.2299 356.256 29.9089 356.694 29.2669C357.138 28.6249 357.36 27.7579 357.36 26.6659C357.36 25.5199 357.141 24.6109 356.703 23.9389C356.271 23.2609 355.632 22.9219 354.786 22.9219C353.976 22.9219 353.343 23.2309 352.887 23.8489C352.431 24.4669 352.203 25.3669 352.203 26.5489C352.203 27.7189 352.425 28.6249 352.869 29.2669C353.319 29.9089 353.946 30.2299 354.75 30.2299ZM367.161 22.1479C367.155 22.0819 367.17 22.0309 367.206 21.9949C367.242 21.9589 367.293 21.9409 367.359 21.9409H368.646C368.778 21.9409 368.844 22.0069 368.844 22.1389L368.772 26.4769L368.844 31.0129C368.844 31.1449 368.778 31.2109 368.646 31.2109H367.368C367.302 31.2109 367.251 31.1929 367.215 31.1569C367.179 31.1209 367.164 31.0729 367.17 31.0129L367.197 29.6179C366.891 30.1819 366.489 30.6169 365.991 30.9229C365.493 31.2289 364.911 31.3819 364.245 31.3819C363.435 31.3819 362.742 31.1749 362.166 30.7609C361.59 30.3409 361.152 29.7709 360.852 29.0509C360.558 28.3249 360.411 27.5059 360.411 26.5939C360.411 25.6939 360.564 24.8779 360.87 24.1459C361.176 23.4079 361.62 22.8259 362.202 22.3999C362.79 21.9739 363.48 21.7609 364.272 21.7609C364.932 21.7609 365.508 21.9019 366 22.1839C366.498 22.4659 366.897 22.8829 367.197 23.4349L367.161 22.1479ZM364.65 30.2299C365.466 30.2299 366.102 29.9239 366.558 29.3119C367.014 28.6939 367.242 27.7849 367.242 26.5849C367.242 25.4149 367.017 24.5119 366.567 23.8759C366.117 23.2339 365.484 22.9129 364.668 22.9129C363.816 22.9129 363.174 23.2339 362.742 23.8759C362.31 24.5179 362.094 25.3849 362.094 26.4769C362.094 27.6289 362.31 28.5439 362.742 29.2219C363.174 29.8939 363.81 30.2299 364.65 30.2299ZM370.987 31.3459C370.771 31.3459 370.567 31.3189 370.375 31.2649C370.267 31.2409 370.213 31.1689 370.213 31.0489V30.2929C370.213 30.1729 370.264 30.1129 370.366 30.1129C370.42 30.1129 370.471 30.1189 370.519 30.1309C370.573 30.1369 370.627 30.1399 370.681 30.1399C370.927 30.1399 371.122 30.0859 371.266 29.9779C371.41 29.8639 371.521 29.6719 371.599 29.4019C371.683 29.1319 371.749 28.7479 371.797 28.2499C371.851 27.6619 371.905 26.7859 371.959 25.6219C372.013 24.4579 372.058 23.2969 372.094 22.1389C372.1 22.0789 372.121 22.0309 372.157 21.9949C372.193 21.9589 372.241 21.9409 372.301 21.9409H378.403C378.535 21.9409 378.601 22.0069 378.601 22.1389L378.574 26.5129L378.655 31.0129C378.655 31.1449 378.589 31.2109 378.457 31.2109L377.161 31.2199C377.029 31.2199 376.963 31.1539 376.963 31.0219L376.99 26.5129L376.936 23.1469H373.507C373.393 25.7029 373.3 27.4429 373.228 28.3669C373.168 29.0509 373.066 29.6059 372.922 30.0319C372.778 30.4579 372.553 30.7849 372.247 31.0129C371.941 31.2349 371.521 31.3459 370.987 31.3459ZM380.885 31.2109C380.759 31.2109 380.696 31.1449 380.696 31.0129L380.75 26.4229L380.687 22.1389C380.687 22.0069 380.75 21.9409 380.876 21.9409H382.172C382.304 21.9409 382.37 22.0069 382.37 22.1389L382.343 26.2519L382.298 29.4019L386.591 22.0849C386.633 21.9889 386.714 21.9409 386.834 21.9409H388.427C388.559 21.9409 388.625 22.0069 388.625 22.1389L388.562 26.4229L388.625 31.0129C388.625 31.1449 388.559 31.2109 388.427 31.2109H387.14C387.008 31.2109 386.942 31.1449 386.942 31.0129L386.978 26.6479L387.005 23.8039L382.748 31.0669C382.694 31.1629 382.613 31.2109 382.505 31.2109H380.885ZM393.506 33.4159C393.446 33.4159 393.398 33.3979 393.362 33.3619C393.326 33.3259 393.308 33.2779 393.308 33.2179V30.2119C393.308 30.1519 393.326 30.1039 393.362 30.0679C393.398 30.0319 393.446 30.0139 393.506 30.0139H394.037C394.277 29.7559 394.463 29.4259 394.595 29.0239C394.733 28.6219 394.838 28.1149 394.91 27.5029C394.982 26.8909 395.045 26.0959 395.099 25.1179C395.159 24.1339 395.204 23.1409 395.234 22.1389C395.24 22.0789 395.261 22.0309 395.297 21.9949C395.333 21.9589 395.381 21.9409 395.441 21.9409H401.444C401.576 21.9409 401.642 22.0069 401.642 22.1389L401.651 26.2879L401.768 30.0139L402.731 30.0049C402.869 30.0049 402.938 30.0709 402.938 30.2029V33.2179C402.938 33.2779 402.92 33.3259 402.884 33.3619C402.848 33.3979 402.797 33.4159 402.731 33.4159H401.66C401.6 33.4159 401.552 33.3979 401.516 33.3619C401.48 33.3259 401.462 33.2779 401.462 33.2179L401.417 31.2109H394.847L394.802 33.2179C394.802 33.2779 394.784 33.3259 394.748 33.3619C394.712 33.3979 394.664 33.4159 394.604 33.4159H393.506ZM400.112 30.0139L400.103 26.2879L400.031 23.1559H396.638C396.566 25.0459 396.467 26.5069 396.341 27.5389C396.275 28.1269 396.185 28.6069 396.071 28.9789C395.963 29.3509 395.819 29.6959 395.639 30.0139H400.112ZM404.614 31.3459C404.398 31.3459 404.194 31.3189 404.002 31.2649C403.894 31.2409 403.84 31.1689 403.84 31.0489V30.2929C403.84 30.1729 403.891 30.1129 403.993 30.1129C404.047 30.1129 404.098 30.1189 404.146 30.1309C404.2 30.1369 404.254 30.1399 404.308 30.1399C404.554 30.1399 404.749 30.0859 404.893 29.9779C405.037 29.8639 405.148 29.6719 405.226 29.4019C405.31 29.1319 405.376 28.7479 405.424 28.2499C405.478 27.6619 405.532 26.7859 405.586 25.6219C405.64 24.4579 405.685 23.2969 405.721 22.1389C405.727 22.0789 405.748 22.0309 405.784 21.9949C405.82 21.9589 405.868 21.9409 405.928 21.9409H412.03C412.162 21.9409 412.228 22.0069 412.228 22.1389L412.201 26.5129L412.282 31.0129C412.282 31.1449 412.216 31.2109 412.084 31.2109L410.788 31.2199C410.656 31.2199 410.59 31.1539 410.59 31.0219L410.617 26.5129L410.563 23.1469H407.134C407.02 25.7029 406.927 27.4429 406.855 28.3669C406.795 29.0509 406.693 29.6059 406.549 30.0319C406.405 30.4579 406.18 30.7849 405.874 31.0129C405.568 31.2349 405.148 31.3459 404.614 31.3459ZM414.145 31.2109C414.031 31.2109 413.974 31.1689 413.974 31.0849C413.974 31.0489 413.986 31.0099 414.01 30.9679L416.179 27.4219C415.447 27.2719 414.883 26.9749 414.487 26.5309C414.097 26.0809 413.902 25.4779 413.902 24.7219C413.902 23.7919 414.223 23.0959 414.865 22.6339C415.513 22.1719 416.461 21.9409 417.709 21.9409H421.219C421.345 21.9409 421.408 22.0069 421.408 22.1389L421.354 26.4409L421.408 31.0129C421.408 31.1449 421.345 31.2109 421.219 31.2109H419.878C419.746 31.2109 419.68 31.1449 419.68 31.0129L419.725 27.6019H417.655L416.485 29.6449L415.675 31.0759C415.621 31.1659 415.543 31.2109 415.441 31.2109H414.145ZM419.743 26.4499L419.698 23.0839H417.628C416.98 23.0839 416.476 23.2309 416.116 23.5249C415.762 23.8129 415.585 24.2179 415.585 24.7399C415.585 25.3039 415.762 25.7299 416.116 26.0179C416.47 26.3059 416.977 26.4499 417.637 26.4499H419.743ZM432.469 26.2519C433.237 26.4199 433.795 26.6989 434.143 27.0889C434.491 27.4729 434.665 27.9769 434.665 28.6009C434.665 29.5669 434.29 30.2449 433.54 30.6349C432.79 31.0189 431.899 31.2109 430.867 31.2109H427.159C427.033 31.2109 426.97 31.1449 426.97 31.0129L427.024 26.4229L426.979 22.1389C426.979 22.0069 427.042 21.9409 427.168 21.9409H430.849C431.989 21.9409 432.862 22.1329 433.468 22.5169C434.08 22.8949 434.386 23.4649 434.386 24.2269C434.386 24.7669 434.218 25.2019 433.882 25.5319C433.552 25.8619 433.081 26.0959 432.469 26.2339V26.2519ZM428.671 23.0839L428.644 25.7659H430.831C432.091 25.7659 432.721 25.3189 432.721 24.4249C432.721 23.9869 432.553 23.6539 432.217 23.4259C431.881 23.1979 431.416 23.0839 430.822 23.0839H428.671ZM428.635 26.8819L428.662 30.0679H430.831C431.509 30.0679 432.037 29.9389 432.415 29.6809C432.793 29.4169 432.982 29.0119 432.982 28.4659C432.982 27.9439 432.778 27.5509 432.37 27.2869C431.968 27.0169 431.458 26.8819 430.84 26.8819H428.635ZM442.694 22.1479C442.688 22.0819 442.703 22.0309 442.739 21.9949C442.775 21.9589 442.826 21.9409 442.892 21.9409H444.179C444.311 21.9409 444.377 22.0069 444.377 22.1389L444.305 26.4769L444.377 31.0129C444.377 31.1449 444.311 31.2109 444.179 31.2109H442.901C442.835 31.2109 442.784 31.1929 442.748 31.1569C442.712 31.1209 442.697 31.0729 442.703 31.0129L442.73 29.6179C442.424 30.1819 442.022 30.6169 441.524 30.9229C441.026 31.2289 440.444 31.3819 439.778 31.3819C438.968 31.3819 438.275 31.1749 437.699 30.7609C437.123 30.3409 436.685 29.7709 436.385 29.0509C436.091 28.3249 435.944 27.5059 435.944 26.5939C435.944 25.6939 436.097 24.8779 436.403 24.1459C436.709 23.4079 437.153 22.8259 437.735 22.3999C438.323 21.9739 439.013 21.7609 439.805 21.7609C440.465 21.7609 441.041 21.9019 441.533 22.1839C442.031 22.4659 442.43 22.8829 442.73 23.4349L442.694 22.1479ZM440.183 30.2299C440.999 30.2299 441.635 29.9239 442.091 29.3119C442.547 28.6939 442.775 27.7849 442.775 26.5849C442.775 25.4149 442.55 24.5119 442.1 23.8759C441.65 23.2339 441.017 22.9129 440.201 22.9129C439.349 22.9129 438.707 23.2339 438.275 23.8759C437.843 24.5179 437.627 25.3849 437.627 26.4769C437.627 27.6289 437.843 28.5439 438.275 29.2219C438.707 29.8939 439.343 30.2299 440.183 30.2299ZM450.381 31.4179C449.463 31.4179 448.677 31.2229 448.023 30.8329C447.375 30.4369 446.88 29.8759 446.538 29.1499C446.202 28.4239 446.034 27.5749 446.034 26.6029C446.034 25.6249 446.202 24.7699 446.538 24.0379C446.88 23.3059 447.381 22.7389 448.041 22.3369C448.701 21.9349 449.493 21.7339 450.417 21.7339C451.161 21.7339 451.812 21.8659 452.37 22.1299C452.928 22.3939 453.372 22.7689 453.702 23.2549C454.032 23.7349 454.236 24.2959 454.314 24.9379V24.9739C454.314 25.0879 454.251 25.1449 454.125 25.1449H452.982C452.862 25.1449 452.793 25.0849 452.775 24.9649C452.655 24.2869 452.382 23.7739 451.956 23.4259C451.536 23.0719 451.023 22.8949 450.417 22.8949C449.523 22.9009 448.854 23.2219 448.41 23.8579C447.972 24.4939 447.753 25.4059 447.753 26.5939C447.753 27.7999 447.972 28.7149 448.41 29.3389C448.854 29.9569 449.526 30.2659 450.426 30.2659C451.098 30.2659 451.653 30.0619 452.091 29.6539C452.535 29.2459 452.796 28.6699 452.874 27.9259C452.892 27.7999 452.961 27.7369 453.081 27.7369H454.242C454.386 27.7369 454.452 27.7969 454.44 27.9169C454.368 28.6009 454.161 29.2069 453.819 29.7349C453.477 30.2629 453.012 30.6769 452.424 30.9769C451.836 31.2709 451.155 31.4179 450.381 31.4179ZM466.863 21.9409C466.995 21.9409 467.061 22.0069 467.061 22.1389L466.998 26.4229L467.061 31.0129C467.061 31.1449 466.995 31.2109 466.863 31.2109H465.531C465.405 31.2109 465.342 31.1449 465.342 31.0129L465.396 26.4229L465.36 23.1559H461.085L461.04 26.4229L461.103 31.0129C461.103 31.1449 461.037 31.2109 460.905 31.2109H459.573C459.447 31.2109 459.384 31.1449 459.384 31.0129L459.438 26.4229L459.384 22.1389C459.384 22.0069 459.447 21.9409 459.573 21.9409H466.863ZM473.137 31.4179C472.207 31.4179 471.412 31.2199 470.752 30.8239C470.092 30.4279 469.588 29.8669 469.24 29.1409C468.898 28.4149 468.727 27.5659 468.727 26.5939C468.727 25.6159 468.898 24.7639 469.24 24.0379C469.588 23.3059 470.092 22.7389 470.752 22.3369C471.418 21.9349 472.213 21.7339 473.137 21.7339C474.061 21.7339 474.853 21.9319 475.513 22.3279C476.173 22.7239 476.674 23.2879 477.016 24.0199C477.358 24.7459 477.529 25.5949 477.529 26.5669C477.529 27.5449 477.358 28.3999 477.016 29.1319C476.674 29.8579 476.173 30.4219 475.513 30.8239C474.853 31.2199 474.061 31.4179 473.137 31.4179ZM473.137 30.2659C474.025 30.2659 474.691 29.9509 475.135 29.3209C475.585 28.6909 475.81 27.7819 475.81 26.5939C475.81 25.4119 475.582 24.4999 475.126 23.8579C474.676 23.2099 474.01 22.8859 473.128 22.8859C472.234 22.8919 471.562 23.2159 471.112 23.8579C470.662 24.4999 470.437 25.4149 470.437 26.6029C470.437 27.7849 470.665 28.6909 471.121 29.3209C471.577 29.9509 472.249 30.2659 473.137 30.2659ZM477.987 33.4159C477.927 33.4159 477.879 33.3979 477.843 33.3619C477.807 33.3259 477.789 33.2779 477.789 33.2179V30.2119C477.789 30.1519 477.807 30.1039 477.843 30.0679C477.879 30.0319 477.927 30.0139 477.987 30.0139H478.518C478.758 29.7559 478.944 29.4259 479.076 29.0239C479.214 28.6219 479.319 28.1149 479.391 27.5029C479.463 26.8909 479.526 26.0959 479.58 25.1179C479.64 24.1339 479.685 23.1409 479.715 22.1389C479.721 22.0789 479.742 22.0309 479.778 21.9949C479.814 21.9589 479.862 21.9409 479.922 21.9409H485.925C486.057 21.9409 486.123 22.0069 486.123 22.1389L486.132 26.2879L486.249 30.0139L487.212 30.0049C487.35 30.0049 487.419 30.0709 487.419 30.2029V33.2179C487.419 33.2779 487.401 33.3259 487.365 33.3619C487.329 33.3979 487.278 33.4159 487.212 33.4159H486.141C486.081 33.4159 486.033 33.3979 485.997 33.3619C485.961 33.3259 485.943 33.2779 485.943 33.2179L485.898 31.2109H479.328L479.283 33.2179C479.283 33.2779 479.265 33.3259 479.229 33.3619C479.193 33.3979 479.145 33.4159 479.085 33.4159H477.987ZM484.593 30.0139L484.584 26.2879L484.512 23.1559H481.119C481.047 25.0459 480.948 26.5069 480.822 27.5389C480.756 28.1269 480.666 28.6069 480.552 28.9789C480.444 29.3509 480.3 29.6959 480.12 30.0139H484.593ZM492.614 22.3369C493.424 22.3369 494.111 22.5289 494.675 22.9129C495.245 23.2969 495.671 23.8249 495.953 24.4969C496.235 25.1689 496.376 25.9339 496.376 26.7919C496.376 27.7099 496.205 28.5169 495.863 29.2129C495.521 29.9029 495.029 30.4399 494.387 30.8239C493.745 31.2019 492.986 31.3909 492.11 31.3909C491.186 31.3909 490.409 31.1689 489.779 30.7249C489.149 30.2809 488.675 29.6419 488.357 28.8079C488.045 27.9739 487.889 26.9749 487.889 25.8109C487.889 23.8669 488.195 22.3519 488.807 21.2659C489.419 20.1799 490.4 19.4959 491.75 19.2139C491.996 19.1599 492.305 19.1059 492.677 19.0519C493.055 18.9979 493.43 18.9499 493.802 18.9079C494.702 18.7999 495.338 18.7099 495.71 18.6379H495.746C495.866 18.6379 495.926 18.7009 495.926 18.8269V19.7269C495.926 19.8529 495.869 19.9249 495.755 19.9429C495.317 20.0389 494.642 20.1379 493.73 20.2399C492.884 20.3419 492.299 20.4289 491.975 20.5009C491.087 20.6989 490.439 21.1339 490.031 21.8059C489.623 22.4719 489.377 23.3749 489.293 24.5149C489.581 23.8429 490.001 23.3119 490.553 22.9219C491.105 22.5319 491.792 22.3369 492.614 22.3369ZM492.119 30.2389C492.935 30.2389 493.565 29.9449 494.009 29.3569C494.459 28.7629 494.684 27.9409 494.684 26.8909C494.684 25.8349 494.468 25.0069 494.036 24.4069C493.61 23.8009 492.998 23.4979 492.2 23.4979C491.672 23.4979 491.213 23.6299 490.823 23.8939C490.433 24.1579 490.13 24.5449 489.914 25.0549C489.704 25.5649 489.599 26.1769 489.599 26.8909C489.599 27.5629 489.695 28.1509 489.887 28.6549C490.079 29.1529 490.364 29.5429 490.742 29.8249C491.12 30.1009 491.579 30.2389 492.119 30.2389ZM502.159 31.4179C501.229 31.4179 500.434 31.2199 499.774 30.8239C499.114 30.4279 498.61 29.8669 498.262 29.1409C497.92 28.4149 497.749 27.5659 497.749 26.5939C497.749 25.6159 497.92 24.7639 498.262 24.0379C498.61 23.3059 499.114 22.7389 499.774 22.3369C500.44 21.9349 501.235 21.7339 502.159 21.7339C503.083 21.7339 503.875 21.9319 504.535 22.3279C505.195 22.7239 505.696 23.2879 506.038 24.0199C506.38 24.7459 506.551 25.5949 506.551 26.5669C506.551 27.5449 506.38 28.3999 506.038 29.1319C505.696 29.8579 505.195 30.4219 504.535 30.8239C503.875 31.2199 503.083 31.4179 502.159 31.4179ZM502.159 30.2659C503.047 30.2659 503.713 29.9509 504.157 29.3209C504.607 28.6909 504.832 27.7819 504.832 26.5939C504.832 25.4119 504.604 24.4999 504.148 23.8579C503.698 23.2099 503.032 22.8859 502.15 22.8859C501.256 22.8919 500.584 23.2159 500.134 23.8579C499.684 24.4999 499.459 25.4149 499.459 26.6029C499.459 27.7849 499.687 28.6909 500.143 29.3209C500.599 29.9509 501.271 30.2659 502.159 30.2659ZM512.797 21.7519C513.607 21.7519 514.3 21.9619 514.876 22.3819C515.452 22.7959 515.887 23.3659 516.181 24.0919C516.481 24.8179 516.631 25.6369 516.631 26.5489C516.631 27.4489 516.475 28.2679 516.163 29.0059C515.857 29.7379 515.413 30.3199 514.831 30.7519C514.249 31.1779 513.562 31.3909 512.77 31.3909C512.116 31.3909 511.546 31.2529 511.06 30.9769C510.574 30.6949 510.181 30.2869 509.881 29.7529L509.917 34.0729C509.917 34.2049 509.851 34.2709 509.719 34.2709H508.387C508.255 34.2709 508.189 34.2049 508.189 34.0729L508.261 27.1519L508.198 22.1389C508.198 22.0069 508.261 21.9409 508.387 21.9409H509.683C509.815 21.9409 509.881 22.0099 509.881 22.1479L509.836 23.4979C510.148 22.9459 510.553 22.5169 511.051 22.2109C511.555 21.9049 512.137 21.7519 512.797 21.7519ZM512.338 30.2299C513.196 30.2299 513.844 29.9089 514.282 29.2669C514.726 28.6249 514.948 27.7579 514.948 26.6659C514.948 25.5199 514.729 24.6109 514.291 23.9389C513.859 23.2609 513.22 22.9219 512.374 22.9219C511.564 22.9219 510.931 23.2309 510.475 23.8489C510.019 24.4669 509.791 25.3669 509.791 26.5489C509.791 27.7189 510.013 28.6249 510.457 29.2669C510.907 29.9089 511.534 30.2299 512.338 30.2299ZM525.263 21.9409C525.317 21.9409 525.359 21.9529 525.389 21.9769C525.419 22.0009 525.434 22.0309 525.434 22.0669C525.434 22.1089 525.419 22.1479 525.389 22.1839L522.653 25.9639L525.83 30.9679C525.854 30.9979 525.866 31.0339 525.866 31.0759C525.866 31.1179 525.851 31.1509 525.821 31.1749C525.791 31.1989 525.749 31.2109 525.695 31.2109H524.201C524.099 31.2109 524.018 31.1629 523.958 31.0669L523.211 29.7619L521.33 26.8369H519.971L520.025 31.0129C520.025 31.1449 519.959 31.2109 519.827 31.2109H518.495C518.369 31.2109 518.306 31.1449 518.306 31.0129L518.36 26.4229L518.306 22.1389C518.306 22.0069 518.369 21.9409 518.495 21.9409H519.827C519.959 21.9409 520.025 22.0069 520.025 22.1389L519.98 25.6219H521.348L523.787 22.0759C523.853 21.9859 523.934 21.9409 524.03 21.9409H525.263ZM527.293 31.2109C527.167 31.2109 527.104 31.1449 527.104 31.0129L527.158 26.4229L527.095 22.1389C527.095 22.0069 527.158 21.9409 527.284 21.9409H528.58C528.712 21.9409 528.778 22.0069 528.778 22.1389L528.751 26.2519L528.706 29.4019L532.999 22.0849C533.041 21.9889 533.122 21.9409 533.242 21.9409H534.835C534.967 21.9409 535.033 22.0069 535.033 22.1389L534.97 26.4229L535.033 31.0129C535.033 31.1449 534.967 31.2109 534.835 31.2109H533.548C533.416 31.2109 533.35 31.1449 533.35 31.0129L533.386 26.6479L533.413 23.8039L529.156 31.0669C529.102 31.1629 529.021 31.2109 528.913 31.2109H527.293ZM353.144 44.1389C353.144 44.0069 353.207 43.9409 353.333 43.9409H354.629C354.761 43.9409 354.827 44.0069 354.827 44.1389L354.764 48.4229L354.827 53.0129C354.827 53.1449 354.761 53.2109 354.629 53.2109H353.333C353.207 53.2109 353.144 53.1449 353.144 53.0129L353.189 48.9089H348.671L348.725 53.0129C348.725 53.1449 348.659 53.2109 348.527 53.2109H347.231C347.105 53.2109 347.042 53.1449 347.042 53.0129L347.096 48.4229L347.042 44.1389C347.042 44.0069 347.105 43.9409 347.231 43.9409H348.527C348.659 43.9409 348.725 44.0069 348.725 44.1389L348.68 47.6939H353.189L353.144 44.1389ZM363.241 44.1479C363.235 44.0819 363.25 44.0309 363.286 43.9949C363.322 43.9589 363.373 43.9409 363.439 43.9409H364.726C364.858 43.9409 364.924 44.0069 364.924 44.1389L364.852 48.4769L364.924 53.0129C364.924 53.1449 364.858 53.2109 364.726 53.2109H363.448C363.382 53.2109 363.331 53.1929 363.295 53.1569C363.259 53.1209 363.244 53.0729 363.25 53.0129L363.277 51.6179C362.971 52.1819 362.569 52.6169 362.071 52.9229C361.573 53.2289 360.991 53.3819 360.325 53.3819C359.515 53.3819 358.822 53.1749 358.246 52.7609C357.67 52.3409 357.232 51.7709 356.932 51.0509C356.638 50.3249 356.491 49.5059 356.491 48.5939C356.491 47.6939 356.644 46.8779 356.95 46.1459C357.256 45.4079 357.7 44.8259 358.282 44.3999C358.87 43.9739 359.56 43.7609 360.352 43.7609C361.012 43.7609 361.588 43.9019 362.08 44.1839C362.578 44.4659 362.977 44.8829 363.277 45.4349L363.241 44.1479ZM360.73 52.2299C361.546 52.2299 362.182 51.9239 362.638 51.3119C363.094 50.6939 363.322 49.7849 363.322 48.5849C363.322 47.4149 363.097 46.5119 362.647 45.8759C362.197 45.2339 361.564 44.9129 360.748 44.9129C359.896 44.9129 359.254 45.2339 358.822 45.8759C358.39 46.5179 358.174 47.3849 358.174 48.4769C358.174 49.6289 358.39 50.5439 358.822 51.2219C359.254 51.8939 359.89 52.2299 360.73 52.2299ZM376.864 44.1479C376.858 44.0819 376.873 44.0309 376.909 43.9949C376.945 43.9589 376.996 43.9409 377.062 43.9409H378.349C378.481 43.9409 378.547 44.0069 378.547 44.1389L378.475 48.4769L378.547 53.0129C378.547 53.1449 378.481 53.2109 378.349 53.2109H377.071C377.005 53.2109 376.954 53.1929 376.918 53.1569C376.882 53.1209 376.867 53.0729 376.873 53.0129L376.9 51.6179C376.594 52.1819 376.192 52.6169 375.694 52.9229C375.196 53.2289 374.614 53.3819 373.948 53.3819C373.138 53.3819 372.445 53.1749 371.869 52.7609C371.293 52.3409 370.855 51.7709 370.555 51.0509C370.261 50.3249 370.114 49.5059 370.114 48.5939C370.114 47.6939 370.267 46.8779 370.573 46.1459C370.879 45.4079 371.323 44.8259 371.905 44.3999C372.493 43.9739 373.183 43.7609 373.975 43.7609C374.635 43.7609 375.211 43.9019 375.703 44.1839C376.201 44.4659 376.6 44.8829 376.9 45.4349L376.864 44.1479ZM374.353 52.2299C375.169 52.2299 375.805 51.9239 376.261 51.3119C376.717 50.6939 376.945 49.7849 376.945 48.5849C376.945 47.4149 376.72 46.5119 376.27 45.8759C375.82 45.2339 375.187 44.9129 374.371 44.9129C373.519 44.9129 372.877 45.2339 372.445 45.8759C372.013 46.5179 371.797 47.3849 371.797 48.4769C371.797 49.6289 372.013 50.5439 372.445 51.2219C372.877 51.8939 373.513 52.2299 374.353 52.2299ZM387.521 43.9409C387.575 43.9409 387.617 43.9529 387.647 43.9769C387.677 44.0009 387.692 44.0309 387.692 44.0669C387.692 44.1089 387.677 44.1479 387.647 44.1839L384.911 47.9639L388.088 52.9679C388.112 52.9979 388.124 53.0339 388.124 53.0759C388.124 53.1179 388.109 53.1509 388.079 53.1749C388.049 53.1989 388.007 53.2109 387.953 53.2109H386.459C386.357 53.2109 386.276 53.1629 386.216 53.0669L385.469 51.7619L383.588 48.8369H382.229L382.283 53.0129C382.283 53.1449 382.217 53.2109 382.085 53.2109H380.753C380.627 53.2109 380.564 53.1449 380.564 53.0129L380.618 48.4229L380.564 44.1389C380.564 44.0069 380.627 43.9409 380.753 43.9409H382.085C382.217 43.9409 382.283 44.0069 382.283 44.1389L382.238 47.6219H383.606L386.045 44.0759C386.111 43.9859 386.192 43.9409 386.288 43.9409H387.521ZM396.334 43.9409C396.394 43.9409 396.442 43.9589 396.478 43.9949C396.514 44.0309 396.532 44.0789 396.532 44.1389V44.9579C396.532 45.0899 396.466 45.1559 396.334 45.1559H393.346L393.301 48.4229L393.364 53.0129C393.364 53.1449 393.298 53.2109 393.166 53.2109H391.843C391.711 53.2109 391.645 53.1449 391.645 53.0129L391.708 48.4229L391.663 45.1559H388.684C388.624 45.1559 388.576 45.1379 388.54 45.1019C388.504 45.0659 388.486 45.0179 388.486 44.9579V44.1389C388.486 44.0069 388.552 43.9409 388.684 43.9409H396.334ZM401.003 53.2379L397.376 44.1749L397.358 44.0939C397.358 44.0459 397.373 44.0099 397.403 43.9859C397.439 43.9559 397.484 43.9409 397.538 43.9409H398.996C399.11 43.9409 399.185 43.9949 399.221 44.1029L401.822 51.0779L404.045 44.1119C404.075 43.9979 404.147 43.9409 404.261 43.9409H405.566C405.686 43.9409 405.746 43.9919 405.746 44.0939L405.728 44.1749L401.57 56.1089C401.534 56.2169 401.462 56.2709 401.354 56.2709H400.175C400.115 56.2709 400.07 56.2559 400.04 56.2259C400.01 56.2019 399.995 56.1659 399.995 56.1179C399.995 56.0999 400.001 56.0729 400.013 56.0369L401.003 53.2379ZM412.917 44.1479C412.911 44.0819 412.926 44.0309 412.962 43.9949C412.998 43.9589 413.049 43.9409 413.115 43.9409H414.402C414.534 43.9409 414.6 44.0069 414.6 44.1389L414.528 48.4769L414.6 53.0129C414.6 53.1449 414.534 53.2109 414.402 53.2109H413.124C413.058 53.2109 413.007 53.1929 412.971 53.1569C412.935 53.1209 412.92 53.0729 412.926 53.0129L412.953 51.6179C412.647 52.1819 412.245 52.6169 411.747 52.9229C411.249 53.2289 410.667 53.3819 410.001 53.3819C409.191 53.3819 408.498 53.1749 407.922 52.7609C407.346 52.3409 406.908 51.7709 406.608 51.0509C406.314 50.3249 406.167 49.5059 406.167 48.5939C406.167 47.6939 406.32 46.8779 406.626 46.1459C406.932 45.4079 407.376 44.8259 407.958 44.3999C408.546 43.9739 409.236 43.7609 410.028 43.7609C410.688 43.7609 411.264 43.9019 411.756 44.1839C412.254 44.4659 412.653 44.8829 412.953 45.4349L412.917 44.1479ZM410.406 52.2299C411.222 52.2299 411.858 51.9239 412.314 51.3119C412.77 50.6939 412.998 49.7849 412.998 48.5849C412.998 47.4149 412.773 46.5119 412.323 45.8759C411.873 45.2339 411.24 44.9129 410.424 44.9129C409.572 44.9129 408.93 45.2339 408.498 45.8759C408.066 46.5179 407.85 47.3849 407.85 48.4769C407.85 49.6289 408.066 50.5439 408.498 51.2219C408.93 51.8939 409.566 52.2299 410.406 52.2299ZM416.743 53.3459C416.527 53.3459 416.323 53.3189 416.131 53.2649C416.023 53.2409 415.969 53.1689 415.969 53.0489V52.2929C415.969 52.1729 416.02 52.1129 416.122 52.1129C416.176 52.1129 416.227 52.1189 416.275 52.1309C416.329 52.1369 416.383 52.1399 416.437 52.1399C416.683 52.1399 416.878 52.0859 417.022 51.9779C417.166 51.8639 417.277 51.6719 417.355 51.4019C417.439 51.1319 417.505 50.7479 417.553 50.2499C417.607 49.6619 417.661 48.7859 417.715 47.6219C417.769 46.4579 417.814 45.2969 417.85 44.1389C417.856 44.0789 417.877 44.0309 417.913 43.9949C417.949 43.9589 417.997 43.9409 418.057 43.9409H424.159C424.291 43.9409 424.357 44.0069 424.357 44.1389L424.33 48.5129L424.411 53.0129C424.411 53.1449 424.345 53.2109 424.213 53.2109L422.917 53.2199C422.785 53.2199 422.719 53.1539 422.719 53.0219L422.746 48.5129L422.692 45.1469H419.263C419.149 47.7029 419.056 49.4429 418.984 50.3669C418.924 51.0509 418.822 51.6059 418.678 52.0319C418.534 52.4579 418.309 52.7849 418.003 53.0129C417.697 53.2349 417.277 53.3459 416.743 53.3459ZM428.117 47.4239H429.719C432.341 47.4239 433.652 48.3779 433.652 50.2859C433.652 52.2359 432.341 53.2109 429.719 53.2109H426.632C426.506 53.2109 426.443 53.1449 426.443 53.0129L426.497 48.7379L426.443 44.1389C426.443 44.0069 426.506 43.9409 426.632 43.9409H427.964C428.096 43.9409 428.162 44.0069 428.162 44.1389L428.117 47.4239ZM428.108 48.5669L428.144 52.0679H429.719C430.445 52.0679 431 51.9329 431.384 51.6629C431.768 51.3869 431.96 50.9459 431.96 50.3399C431.96 49.7459 431.774 49.3019 431.402 49.0079C431.036 48.7139 430.475 48.5669 429.719 48.5669H428.108ZM441.316 44.1389C441.316 44.0069 441.379 43.9409 441.505 43.9409H442.801C442.933 43.9409 442.999 44.0069 442.999 44.1389L442.936 48.4229L442.999 53.0129C442.999 53.1449 442.933 53.2109 442.801 53.2109H441.505C441.379 53.2109 441.316 53.1449 441.316 53.0129L441.361 48.9089H436.843L436.897 53.0129C436.897 53.1449 436.831 53.2109 436.699 53.2109H435.403C435.277 53.2109 435.214 53.1449 435.214 53.0129L435.268 48.4229L435.214 44.1389C435.214 44.0069 435.277 43.9409 435.403 43.9409H436.699C436.831 43.9409 436.897 44.0069 436.897 44.1389L436.852 47.6939H441.361L441.316 44.1389ZM445.212 53.2109C445.086 53.2109 445.023 53.1449 445.023 53.0129L445.077 48.7379L445.023 44.1389C445.023 44.0069 445.086 43.9409 445.212 43.9409H446.544C446.676 43.9409 446.742 44.0069 446.742 44.1389L446.697 47.4239H448.308C450.93 47.4239 452.241 48.3779 452.241 50.2859C452.241 52.2359 450.93 53.2109 448.308 53.2109H445.212ZM453.06 53.2109C452.934 53.2109 452.871 53.1449 452.871 53.0129L452.925 48.7379L452.871 44.1389C452.871 44.0069 452.934 43.9409 453.06 43.9409H454.392C454.524 43.9409 454.59 44.0069 454.59 44.1389L454.527 48.7379L454.59 53.0129C454.59 53.1449 454.524 53.2109 454.392 53.2109H453.06ZM446.688 48.5669L446.724 52.0679H448.308C449.034 52.0679 449.589 51.9329 449.973 51.6629C450.357 51.3869 450.549 50.9459 450.549 50.3399C450.549 49.7459 450.363 49.3019 449.991 49.0079C449.625 48.7139 449.064 48.5669 448.308 48.5669H446.688ZM460.684 53.4179C459.736 53.4179 458.929 53.2169 458.263 52.8149C457.603 52.4129 457.102 51.8489 456.76 51.1229C456.418 50.3969 456.247 49.5569 456.247 48.6029C456.247 47.6369 456.418 46.7879 456.76 46.0559C457.108 45.3239 457.609 44.7539 458.263 44.3459C458.917 43.9379 459.694 43.7339 460.594 43.7339C461.482 43.7339 462.244 43.9259 462.88 44.3099C463.522 44.6939 464.014 45.2489 464.356 45.9749C464.704 46.7009 464.89 47.5679 464.914 48.5759C464.914 48.7139 464.848 48.7829 464.716 48.7829H457.939C457.993 51.1049 458.914 52.2659 460.702 52.2659C461.374 52.2659 461.914 52.0889 462.322 51.7349C462.736 51.3749 463.012 50.8529 463.15 50.1689C463.18 50.0489 463.252 49.9889 463.366 49.9889H464.554C464.62 49.9889 464.671 50.0039 464.707 50.0339C464.743 50.0639 464.758 50.1089 464.752 50.1689C464.65 50.8109 464.425 51.3779 464.077 51.8699C463.735 52.3559 463.276 52.7369 462.7 53.0129C462.124 53.2829 461.452 53.4179 460.684 53.4179ZM463.123 47.6579C463.105 47.1419 462.997 46.6739 462.799 46.2539C462.601 45.8279 462.316 45.4919 461.944 45.2459C461.572 44.9999 461.125 44.8769 460.603 44.8769C459.841 44.8769 459.241 45.1199 458.803 45.6059C458.365 46.0859 458.092 46.7699 457.984 47.6579H463.123ZM477.194 43.9409C477.254 43.9409 477.302 43.9589 477.338 43.9949C477.374 44.0309 477.392 44.0789 477.392 44.1389V44.9579C477.392 45.0899 477.326 45.1559 477.194 45.1559H474.206L474.161 48.4229L474.224 53.0129C474.224 53.1449 474.158 53.2109 474.026 53.2109H472.703C472.571 53.2109 472.505 53.1449 472.505 53.0129L472.568 48.4229L472.523 45.1559H469.544C469.484 45.1559 469.436 45.1379 469.4 45.1019C469.364 45.0659 469.346 45.0179 469.346 44.9579V44.1389C469.346 44.0069 469.412 43.9409 469.544 43.9409H477.194ZM482.199 53.4179C481.251 53.4179 480.444 53.2169 479.778 52.8149C479.118 52.4129 478.617 51.8489 478.275 51.1229C477.933 50.3969 477.762 49.5569 477.762 48.6029C477.762 47.6369 477.933 46.7879 478.275 46.0559C478.623 45.3239 479.124 44.7539 479.778 44.3459C480.432 43.9379 481.209 43.7339 482.109 43.7339C482.997 43.7339 483.759 43.9259 484.395 44.3099C485.037 44.6939 485.529 45.2489 485.871 45.9749C486.219 46.7009 486.405 47.5679 486.429 48.5759C486.429 48.7139 486.363 48.7829 486.231 48.7829H479.454C479.508 51.1049 480.429 52.2659 482.217 52.2659C482.889 52.2659 483.429 52.0889 483.837 51.7349C484.251 51.3749 484.527 50.8529 484.665 50.1689C484.695 50.0489 484.767 49.9889 484.881 49.9889H486.069C486.135 49.9889 486.186 50.0039 486.222 50.0339C486.258 50.0639 486.273 50.1089 486.267 50.1689C486.165 50.8109 485.94 51.3779 485.592 51.8699C485.25 52.3559 484.791 52.7369 484.215 53.0129C483.639 53.2829 482.967 53.4179 482.199 53.4179ZM484.638 47.6579C484.62 47.1419 484.512 46.6739 484.314 46.2539C484.116 45.8279 483.831 45.4919 483.459 45.2459C483.087 44.9999 482.64 44.8769 482.118 44.8769C481.356 44.8769 480.756 45.1199 480.318 45.6059C479.88 46.0859 479.607 46.7699 479.499 47.6579H484.638ZM488.261 53.2109C488.135 53.2109 488.072 53.1449 488.072 53.0129L488.126 48.6659L488.081 44.1389C488.081 44.0069 488.144 43.9409 488.27 43.9409H489.935C490.049 43.9409 490.124 43.9949 490.16 44.1029L492.959 51.3119L495.785 44.1029C495.821 43.9949 495.896 43.9409 496.01 43.9409H497.693C497.819 43.9409 497.882 44.0069 497.882 44.1389L497.828 48.6659L497.882 53.0129C497.882 53.1449 497.819 53.2109 497.693 53.2109H496.478C496.418 53.2109 496.37 53.1929 496.334 53.1569C496.298 53.1209 496.28 53.0729 496.28 53.0129L496.289 48.8639L496.316 45.7949L493.508 53.0489C493.472 53.1569 493.397 53.2109 493.283 53.2109H492.437C492.329 53.2109 492.254 53.1569 492.212 53.0489L489.368 45.7499L489.413 48.8639L489.44 53.0129C489.44 53.1449 489.371 53.2109 489.233 53.2109H488.261ZM500.108 53.2109C499.982 53.2109 499.919 53.1449 499.919 53.0129L499.973 48.7379L499.919 44.1389C499.919 44.0069 499.982 43.9409 500.108 43.9409H501.44C501.572 43.9409 501.638 44.0069 501.638 44.1389L501.593 47.4239H503.204C505.826 47.4239 507.137 48.3779 507.137 50.2859C507.137 52.2359 505.826 53.2109 503.204 53.2109H500.108ZM507.956 53.2109C507.83 53.2109 507.767 53.1449 507.767 53.0129L507.821 48.7379L507.767 44.1389C507.767 44.0069 507.83 43.9409 507.956 43.9409H509.288C509.42 43.9409 509.486 44.0069 509.486 44.1389L509.423 48.7379L509.486 53.0129C509.486 53.1449 509.42 53.2109 509.288 53.2109H507.956ZM501.584 48.5669L501.62 52.0679H503.204C503.93 52.0679 504.485 51.9329 504.869 51.6629C505.253 51.3869 505.445 50.9459 505.445 50.3399C505.445 49.7459 505.259 49.3019 504.887 49.0079C504.521 48.7139 503.96 48.5669 503.204 48.5669H501.584Z" fill="#1A1A1D"/>
</svg>
