<svg width="221" height="78" viewBox="0 0 221 78" fill="none" xmlns="http://www.w3.org/2000/svg">
<mask id="path-1-inside-1_847_12530" fill="white">
<path fill-rule="evenodd" clip-rule="evenodd" d="M14.7207 0C6.84783 0 0.465576 6.38225 0.465576 14.2552V43.912C0.465576 51.7849 6.84781 58.1671 14.7207 58.1671H91.1271L110.106 77.7656L129.084 58.1671H206.279C214.152 58.1671 220.534 51.7849 220.534 43.912V14.2552C220.534 6.38225 214.152 0 206.279 0H14.7207Z"/>
</mask>
<path fill-rule="evenodd" clip-rule="evenodd" d="M14.7207 0C6.84783 0 0.465576 6.38225 0.465576 14.2552V43.912C0.465576 51.7849 6.84781 58.1671 14.7207 58.1671H91.1271L110.106 77.7656L129.084 58.1671H206.279C214.152 58.1671 220.534 51.7849 220.534 43.912V14.2552C220.534 6.38225 214.152 0 206.279 0H14.7207Z" fill="white"/>
<path d="M91.1271 58.1671L93.0039 56.3497L92.234 55.5546H91.1271V58.1671ZM110.106 77.7656L108.229 79.583L110.106 81.5211L111.982 79.583L110.106 77.7656ZM129.084 58.1671V55.5546H127.977L127.207 56.3497L129.084 58.1671ZM3.07811 14.2552C3.07811 7.82511 8.29069 2.61253 14.7207 2.61253V-2.61253C5.40497 -2.61253 -2.14696 4.93939 -2.14696 14.2552H3.07811ZM3.07811 43.912V14.2552H-2.14696V43.912H3.07811ZM14.7207 55.5546C8.29068 55.5546 3.07811 50.342 3.07811 43.912H-2.14696C-2.14696 53.2277 5.40494 60.7796 14.7207 60.7796V55.5546ZM91.1271 55.5546H14.7207V60.7796H91.1271V55.5546ZM89.2504 59.9845L108.229 79.583L111.982 75.9482L93.0039 56.3497L89.2504 59.9845ZM111.982 79.583L130.961 59.9845L127.207 56.3497L108.229 75.9482L111.982 79.583ZM206.279 55.5546H129.084V60.7796H206.279V55.5546ZM217.922 43.912C217.922 50.342 212.709 55.5546 206.279 55.5546V60.7796C215.595 60.7796 223.147 53.2277 223.147 43.912H217.922ZM217.922 14.2552V43.912H223.147V14.2552H217.922ZM206.279 2.61253C212.709 2.61253 217.922 7.82511 217.922 14.2552H223.147C223.147 4.93939 215.595 -2.61253 206.279 -2.61253V2.61253ZM14.7207 2.61253H206.279V-2.61253H14.7207V2.61253Z" fill="#1A1A1D" mask="url(#path-1-inside-1_847_12530)"/>
</svg>
