<svg width="140" height="140" viewBox="0 0 140 140" fill="none" xmlns="http://www.w3.org/2000/svg">
<rect x="0.5" y="139.5" width="139" height="139" rx="19.5" transform="rotate(-90 0.5 139.5)" fill="white"/>
<rect x="0.5" y="139.5" width="139" height="139" rx="19.5" transform="rotate(-90 0.5 139.5)" stroke="#1A1A1D"/>
<path d="M110.181 90.8881C110.181 97.3339 104.534 102.738 97.703 102.454C97.2936 102.437 96.9221 102.217 96.6834 101.884C89.6945 92.1341 82.3178 84.0715 74.0295 77.1747C73.2516 76.5273 72.0735 76.9086 71.8233 77.8893C69.1493 88.3694 67.9787 99.2727 68.1367 111.296C68.1421 111.703 67.9737 112.099 67.6574 112.356C60.9311 117.823 51.0406 114.353 48.7373 106.154C48.6241 105.751 48.7234 105.32 48.9771 104.987C56.3004 95.3783 61.7374 85.9427 65.8132 75.8083C66.1897 74.8722 65.4709 73.8697 64.4636 73.9283C53.6222 74.5587 43.0917 76.8788 31.8208 80.7139C31.4434 80.8423 31.0257 80.8099 30.6859 80.6013C27.024 78.3535 25 74.7406 25 70.7244C25 66.7082 27.024 63.0952 30.6859 60.8475C31.0257 60.6389 31.4434 60.6065 31.8209 60.7347C43.0863 64.5614 53.612 66.6919 64.4477 67.3004C65.4593 67.3572 66.1784 66.347 65.7949 65.4093C61.7225 55.4529 56.2933 45.8614 48.985 36.4613C48.7265 36.1288 48.6234 35.6953 48.7345 35.2891C51.0346 26.8745 60.9466 23.4008 67.6761 29.093C67.9807 29.3506 68.1422 29.7396 68.1369 30.1385C67.9778 42.1598 69.1481 52.8778 71.8227 63.338C72.0734 64.3186 73.2516 64.6999 74.0295 64.0526C82.3178 57.1557 89.6945 49.0931 96.6834 39.3431C96.9221 39.0101 97.2936 38.7906 97.703 38.7736C104.534 38.4892 110.181 43.8933 110.181 50.3391C110.181 51.8892 109.841 53.4392 109.309 54.8411C109.165 55.222 108.845 55.5068 108.458 55.6324C97.0214 59.3388 87.0871 63.8088 77.9561 69.5642C77.0991 70.1045 77.0991 71.3442 77.9572 71.8829C87.0778 77.6082 96.9999 81.8859 108.42 85.5827C108.829 85.7152 109.16 86.0256 109.3 86.4322C109.837 87.9884 110.181 89.5239 110.181 90.8881Z" fill="#F2F8FD"/>
</svg>
