<svg width="140" height="140" viewBox="0 0 140 140" fill="none" xmlns="http://www.w3.org/2000/svg">
<rect x="0.5" y="0.5" width="139" height="139" rx="19.5" fill="white"/>
<rect x="0.5" y="0.5" width="139" height="139" rx="19.5" stroke="#1A1A1D"/>
<path d="M50.1588 112.636C43.713 112.636 38.3088 106.99 38.5932 100.158C38.6103 99.7487 38.8297 99.3772 39.1628 99.1385C48.9128 92.1496 56.9754 84.7729 63.8722 76.4846C64.5196 75.7067 64.1382 74.5286 63.1576 74.2783C52.6775 71.6044 41.7741 70.4338 29.7512 70.5918C29.3437 70.5972 28.9475 70.4287 28.6904 70.1125C23.2239 63.3861 26.694 53.4957 34.8927 51.1924C35.2957 51.0792 35.7272 51.1785 36.0601 51.4322C45.6686 58.7555 55.1041 64.1925 65.2386 68.2683C66.1747 68.6448 67.1772 67.926 67.1186 66.9187C66.4881 56.0773 64.1681 45.5468 60.3329 34.2758C60.2045 33.8984 60.237 33.4807 60.4456 33.141C62.6933 29.4791 66.3062 27.4551 70.3225 27.4551C74.3387 27.4551 77.9516 29.4791 80.1994 33.141C80.408 33.4807 80.4404 33.8985 80.3121 34.2759C76.4854 45.5413 74.355 56.0671 73.7465 66.9028C73.6897 67.9143 74.6999 68.6335 75.6376 68.25C85.5939 64.1776 95.1855 58.7484 104.586 51.44C104.918 51.1816 105.352 51.0785 105.758 51.1896C114.172 53.4897 117.646 63.4017 111.954 70.1312C111.696 70.4357 111.307 70.5973 110.908 70.592C98.887 70.4328 88.169 71.6031 77.7088 74.2778C76.7283 74.5285 76.3469 75.7067 76.9943 76.4846C83.8912 84.7729 91.9537 92.1496 101.704 99.1385C102.037 99.3772 102.256 99.7487 102.273 100.158C102.558 106.99 97.1536 112.636 90.7077 112.636C89.1577 112.636 87.6076 112.296 86.2057 111.764C85.8249 111.62 85.5401 111.3 85.4145 110.913C81.7081 99.4765 77.2381 89.5422 71.4826 80.4112C70.9424 79.5541 69.7026 79.5542 69.164 80.4123C63.4387 89.5329 59.161 99.455 55.4641 110.875C55.3317 111.284 55.0212 111.615 54.6146 111.755C53.0585 112.292 51.5229 112.636 50.1588 112.636Z" fill="#FF5C39"/>
</svg>
