<svg width="140" height="140" viewBox="0 0 140 140" fill="none" xmlns="http://www.w3.org/2000/svg">
<rect x="0.5" y="0.5" width="139" height="139" rx="19.5" fill="white"/>
<rect x="0.5" y="0.5" width="139" height="139" rx="19.5" stroke="#1A1A1D"/>
<path d="M50.1593 112.636C43.7134 112.636 38.3093 106.99 38.5937 100.158C38.6107 99.7487 38.8302 99.3772 39.1633 99.1385C48.9133 92.1496 56.9759 84.7729 63.8727 76.4846C64.5201 75.7067 64.1387 74.5286 63.1581 74.2783C52.678 71.6044 41.7746 70.4338 29.7517 70.5918C29.3442 70.5972 28.948 70.4287 28.6909 70.1125C23.2244 63.3861 26.6945 53.4957 34.8932 51.1924C35.2961 51.0792 35.7277 51.1785 36.0606 51.4322C45.6691 58.7555 55.1046 64.1925 65.2391 68.2683C66.1752 68.6448 67.1777 67.926 67.1191 66.9187C66.4886 56.0773 64.1686 45.5468 60.3334 34.2758C60.205 33.8984 60.2375 33.4807 60.446 33.141C62.6938 29.4791 66.3067 27.4551 70.323 27.4551C74.3392 27.4551 77.9521 29.4791 80.1999 33.141C80.4084 33.4807 80.4409 33.8985 80.3126 34.2759C76.4859 45.5413 74.3555 56.0671 73.747 66.9028C73.6902 67.9143 74.7004 68.6335 75.6381 68.25C85.5944 64.1776 95.1859 58.7484 104.586 51.44C104.919 51.1816 105.352 51.0785 105.758 51.1896C114.173 53.4897 117.647 63.4017 111.954 70.1312C111.697 70.4357 111.308 70.5973 110.909 70.592C98.8875 70.4328 88.1695 71.6031 77.7093 74.2778C76.7288 74.5285 76.3474 75.7067 76.9948 76.4846C83.8916 84.7729 91.9542 92.1496 101.704 99.1385C102.037 99.3772 102.257 99.7487 102.274 100.158C102.558 106.99 97.1541 112.636 90.7082 112.636C89.1582 112.636 87.6081 112.296 86.2062 111.764C85.8254 111.62 85.5406 111.3 85.415 110.913C81.7086 99.4765 77.2386 89.5422 71.4831 80.4112C70.9429 79.5541 69.7031 79.5542 69.1645 80.4123C63.4391 89.5329 59.1615 99.455 55.4646 110.875C55.3321 111.284 55.0217 111.615 54.6151 111.755C53.059 112.292 51.5234 112.636 50.1593 112.636Z" fill="#050505"/>
</svg>
