<svg width="1078" height="318" viewBox="0 0 1078 318" fill="none" xmlns="http://www.w3.org/2000/svg">
<path d="M93.6 49.3994L70 120.999C84 111.799 103.2 106.999 122.8 106.999C174 106.999 212.4 140.599 212.4 198.199C212.4 261.399 167.2 306.599 101.6 306.599C44.8 306.599 3.2 274.599 0 212.599H42C44 246.599 66 272.999 102.8 272.999C144.4 272.999 168.8 240.999 168.8 200.599C168.8 163.799 143.2 140.599 110.4 140.599C84.8 140.599 64.8 153.799 56.4 169.399L19.6 159.399L67.2 11.3994H236L228.4 49.3994H93.6Z" fill="black"/>
<path d="M307.008 317.4C266.104 298.956 242 251.942 242 195.887C242 118.857 290.208 16.8736 373.842 0.599609L376.033 13.9804C302.991 33.1476 270.486 141.279 270.486 208.183C270.486 254.474 285.826 289.191 314.312 305.827L307.008 317.4Z" fill="black"/>
<path d="M701.6 304.019C774.642 284.852 807.146 176.72 807.146 109.816C807.146 63.5256 791.807 28.8078 763.321 12.1722L770.625 0.599609C811.528 19.0434 835.998 66.0572 835.998 122.112C835.998 199.142 787.424 301.126 703.791 317.4L701.6 304.019Z" fill="black"/>
<path d="M459.781 295.75L457.67 296.767L458.064 294.458L459.1 288.389L459.195 287.833L459.683 287.548C470.617 281.163 478.859 276.876 484.37 274.731C492.952 271.35 502.36 269.492 512.584 269.143L512.585 269.143C516.511 269.011 520.529 269.22 524.637 269.77C528.777 270.29 532.886 271.269 536.963 272.703L536.964 272.703C540.221 273.85 542.793 274.936 544.646 275.966C546.487 276.976 551.19 279.868 558.709 284.606L559.392 285.037L559.256 285.833L558.245 291.754L557.967 293.384L556.497 292.625C547.845 288.156 541.202 285.238 536.536 283.829L536.533 283.828C528.945 281.509 520.282 280.495 510.527 280.812C500.75 281.162 492.07 282.579 484.474 285.047C479.457 286.679 471.241 290.234 459.781 295.75Z" fill="#050505" stroke="#050505" stroke-width="2.41901"/>
<path d="M330 159L330 136L509 136L509 159L330 159Z" fill="#050505"/>
<path d="M580 159L580 136L758 136L758 159L580 159Z" fill="#050505"/>
<path d="M665.674 136.107L641.73 136.111V271.59L665.674 271.585V136.107Z" fill="#050505"/>
<path d="M422.661 136.106L398.717 136.111V274.2L422.661 274.196V136.106Z" fill="#050505"/>
<path d="M457.63 136.068L433.687 136.124V264.933L457.63 264.876V136.068Z" fill="#050505"/>
<path d="M700.63 136.068L676.687 136.124V264.933L700.63 264.876V136.068Z" fill="#050505"/>
<path d="M772.424 75.094C783.65 95.9428 785.789 122.619 778.839 155.121C771.355 190.297 756.226 219.539 733.453 242.847C706.617 270.218 673.793 283.903 634.982 283.903C598.737 283.903 572.81 271.929 557.2 247.979C543.621 224.885 540.574 195.697 548.058 160.414C554.794 128.553 568.48 101.289 589.115 78.6222C615.63 49.5407 648.774 35 688.548 35C730.138 35 758.097 48.3647 772.424 75.094ZM745.962 155.603C751.843 127.911 749.33 105.619 738.424 88.7259C727.626 71.833 709.664 63.3865 684.538 63.3865C660.161 63.3865 638.457 71.7795 619.426 88.5655C600.501 105.245 587.564 129.889 580.615 162.499C575.055 188.587 576.979 210.612 586.388 228.574C595.797 246.429 615.309 255.356 644.925 255.356C673.045 255.356 695.497 245.306 712.283 225.206C729.176 204.998 740.402 181.797 745.962 155.603Z" fill="#050505"/>
<path d="M523.355 75.094C534.581 95.9428 536.719 122.619 529.77 155.121C522.286 190.297 507.157 219.539 484.383 242.847C457.547 270.218 424.724 283.903 385.913 283.903C349.668 283.903 323.74 271.929 308.13 247.979C294.552 224.885 291.505 195.697 298.989 160.414C305.725 128.553 319.41 101.289 340.045 78.6222C366.561 49.5407 399.705 35 439.478 35C481.069 35 509.028 48.3647 523.355 75.094ZM496.893 155.603C502.773 127.911 500.261 105.619 489.355 88.7259C478.557 71.833 460.594 63.3865 435.469 63.3865C411.092 63.3865 389.388 71.7795 370.356 88.5655C351.432 105.245 338.495 129.889 331.545 162.499C325.986 188.587 327.91 210.612 337.319 228.574C346.728 246.429 366.24 255.356 395.856 255.356C423.975 255.356 446.428 245.306 463.214 225.206C480.107 204.998 491.333 181.797 496.893 155.603Z" fill="#050505"/>
<path d="M935.6 49.3994L912 120.999C926 111.799 945.2 106.999 964.8 106.999C1016 106.999 1054.4 140.599 1054.4 198.199C1054.4 261.399 1009.2 306.599 943.6 306.599C886.8 306.599 845.2 274.599 842 212.599H884C886 246.599 908 272.999 944.8 272.999C986.4 272.999 1010.8 240.999 1010.8 200.599C1010.8 163.799 985.2 140.599 952.4 140.599C926.8 140.599 906.8 153.799 898.4 169.399L861.6 159.399L909.2 11.3994H1078L1070.4 49.3994H935.6Z" fill="black"/>
</svg>
