<svg width="140" height="140" viewBox="0 0 140 140" fill="none" xmlns="http://www.w3.org/2000/svg">
<rect x="0.5" y="0.5" width="139" height="139" rx="19.5" fill="#050505"/>
<rect x="0.5" y="0.5" width="139" height="139" rx="19.5" stroke="#1A1A1D"/>
<path d="M70.3223 27.1035C74.4657 27.1035 78.1898 29.1951 80.499 32.957L80.5889 33.125C80.7469 33.4679 80.7772 33.8509 80.6953 34.2109L80.6455 34.3887C76.9472 45.276 74.8387 55.4655 74.1592 65.9111L74.0977 66.9229C74.0556 67.6755 74.8055 68.2093 75.5039 67.9238L76.4336 67.5391C86.0287 63.5231 95.2877 58.2226 104.369 51.1621L104.53 51.0508C104.918 50.8127 105.393 50.7246 105.851 50.8496L106.252 50.9668C114.472 53.4905 117.893 63.2112 112.491 70.0312L112.223 70.3584C111.933 70.7014 111.519 70.8972 111.089 70.9365L110.903 70.9443C99.2839 70.7905 88.8916 71.881 78.7744 74.373L77.7959 74.6191C77.0662 74.8059 76.7827 75.6806 77.2646 76.2598L77.9131 77.0312C84.6447 84.9813 92.4845 92.0969 101.909 98.8525L102.057 98.9707C102.387 99.2653 102.606 99.6812 102.625 100.144L102.635 100.472C102.744 107.347 97.2581 112.988 90.708 112.988C89.3079 112.988 87.9134 112.719 86.626 112.288L86.0811 112.094C85.6529 111.931 85.3266 111.599 85.1475 111.197L85.0801 111.021C81.4966 99.9646 77.1999 90.3212 71.7188 81.4541L71.1846 80.5986C70.8073 80.0006 69.9754 79.9638 69.543 80.4873L69.4619 80.5996C64.1129 89.1208 60.0287 98.3491 56.498 108.863L55.7988 110.983C55.6548 111.428 55.3398 111.803 54.917 112.01L54.7295 112.088C53.1542 112.631 51.5774 112.988 50.1592 112.988C43.5051 112.988 37.9489 107.167 38.2412 100.144L38.2617 99.9482C38.3361 99.5009 38.5975 99.111 38.958 98.8525L39.8652 98.1973C49.1879 91.4181 56.9411 84.2639 63.6016 76.2598L63.6836 76.1475C64.0225 75.6117 63.7906 74.8969 63.2021 74.6621L63.0703 74.6191C52.9507 72.0372 42.4311 70.8603 30.877 70.9326L29.7559 70.9434C29.314 70.9492 28.8738 70.7905 28.5488 70.4775L28.417 70.335C22.7818 63.4011 26.3691 53.2214 34.7979 50.8535L34.9932 50.8115C35.451 50.7431 35.9128 50.8775 36.2734 51.1523L37.1719 51.832C46.4481 58.7959 55.5835 64.0055 65.3701 67.9414L65.501 67.9854C66.1132 68.1436 66.7213 67.7068 66.7666 67.0771L66.7676 66.9395C66.1786 56.8114 64.1092 46.9504 60.6992 36.4893L60 34.3896C59.8409 33.9222 59.8774 33.3939 60.1455 32.957L60.3662 32.6094C62.6879 29.0664 66.3083 27.1036 70.3223 27.1035Z" fill="white" stroke="#1A1A1D" stroke-width="0.703974"/>
</svg>
