<svg width="111" height="59" viewBox="0 0 111 59" fill="none" xmlns="http://www.w3.org/2000/svg">
<path d="M12.1068 59C4.48902 55.5651 0 46.8094 0 36.3699C0 22.024 8.97808 3.03082 24.5536 0L24.9617 2.49201C11.3586 6.06165 5.3052 26.1998 5.3052 38.6598C5.3052 47.2808 8.16188 53.7466 13.4671 56.8447L12.1068 59Z" fill="black"/>
<path d="M85.5957 56.508C99.1988 52.9384 105.252 32.8002 105.252 20.3402C105.252 11.7192 102.396 5.25342 97.0903 2.15525L98.4506 0C106.068 3.43493 110.625 12.1906 110.625 22.6301C110.625 36.976 101.579 55.9692 86.0038 59L85.5957 56.508Z" fill="black"/>
<path d="M94.6124 26.4265L96.3075 27.6796L96.2726 31.3562C93.4952 29.7968 91.2178 28.7068 89.4404 28.0861C86.4354 27.0242 83.138 26.4765 79.5483 26.4431C77.249 26.4216 75.1239 26.5877 73.1731 26.9413C70.1997 27.4829 67.3512 28.4729 64.6274 29.9113L62.6465 30.9559L62.6821 27.2096C65.1858 25.467 67.5213 24.1469 69.6885 23.2494C72.8688 21.9197 76.0661 21.2699 79.2804 21.2998C82.8114 21.3327 86.3935 22.1735 90.0265 23.8222C92.059 24.7473 93.5877 25.6154 94.6124 26.4265Z" fill="black"/>
<path d="M45.0815 41.3772L44.0645 40.64L44.0645 38.4492C45.7281 39.3629 47.0912 39.9998 48.1538 40.3597C49.9503 40.9758 51.918 41.2838 54.0571 41.2838C55.4272 41.2838 56.6924 41.173 57.8528 40.9515C59.6213 40.6124 61.313 40.0067 62.9278 39.1345L64.1021 38.5011V40.7335C62.6202 41.7856 61.2361 42.5851 59.9499 43.132C58.0625 43.9419 56.1612 44.3468 54.2458 44.3468C52.1417 44.3468 50.0027 43.8657 47.8287 42.9036C46.6124 42.3636 45.6967 41.8549 45.0815 41.3772Z" fill="black"/>
<path d="M44.9191 26.0618L46.6142 27.3148L46.5792 30.9915C43.8018 29.4321 41.5244 28.3421 39.7471 27.7214C36.742 26.6594 33.4446 26.1118 29.8549 26.0783C27.5557 26.0569 25.4306 26.223 23.4797 26.5766C20.5064 27.1181 17.6578 28.1081 14.934 29.5466L12.9531 30.5911L12.9887 26.8448C15.4925 25.1023 17.8279 23.7822 19.9952 22.8846C23.1754 21.555 26.3727 20.9051 29.587 20.9351C33.1181 20.968 36.7001 21.8087 40.3331 23.4574C42.3657 24.3825 43.8943 25.2506 44.9191 26.0618Z" fill="black"/>
<path d="M85.6636 31.3996C85.6636 35.253 82.3015 38.3768 78.1541 38.3768C74.0067 38.3768 70.6445 35.253 70.6445 31.3996C70.6445 27.5462 74.0067 24.4224 78.1541 24.4224C82.3015 24.4224 85.6636 27.5462 85.6636 31.3996Z" fill="black"/>
<path d="M36.5288 31.2135C36.5288 35.0669 33.1667 38.1907 29.0193 38.1907C24.8719 38.1907 21.5098 35.0669 21.5098 31.2135C21.5098 27.3601 24.8719 24.2363 29.0193 24.2363C33.1667 24.2363 36.5288 27.3601 36.5288 31.2135Z" fill="black"/>
</svg>
