<svg width="71" height="70" viewBox="0 0 71 70" fill="none" xmlns="http://www.w3.org/2000/svg">
<rect x="1" y="0.5" width="69" height="69" rx="34.5" fill="white"/>
<rect x="1" y="0.5" width="69" height="69" rx="34.5" stroke="#050505"/>
<g clip-path="url(#clip0_680_10338)">
<path fill-rule="evenodd" clip-rule="evenodd" d="M58.1695 34.9998C58.1695 47.5194 48.0204 57.6686 35.5008 57.6686C22.9812 57.6686 12.832 47.5194 12.832 34.9998C12.832 22.4802 22.9812 12.3311 35.5008 12.3311C48.0204 12.3311 58.1695 22.4802 58.1695 34.9998ZM36.3131 29.0661C34.1083 29.9832 29.7016 31.8813 23.0932 34.7605C22.0201 35.1872 21.458 35.6047 21.4068 36.0129C21.3203 36.7028 22.1842 36.9744 23.3607 37.3444C23.5207 37.3947 23.6865 37.4468 23.8565 37.5021C25.0139 37.8783 26.5709 38.3185 27.3802 38.336C28.1144 38.3518 28.9339 38.0491 29.8386 37.4279C36.013 33.26 39.2003 31.1533 39.4004 31.1079C39.5416 31.0759 39.7372 31.0356 39.8697 31.1534C40.0023 31.2712 39.9893 31.4943 39.9752 31.5542C39.8896 31.919 36.4984 35.0718 34.7435 36.7033C34.1964 37.212 33.8083 37.5727 33.729 37.6551C33.5513 37.8397 33.3702 38.0143 33.1961 38.1821C32.1208 39.2187 31.3145 39.996 33.2407 41.2654C34.1664 41.8755 34.9072 42.3799 35.6462 42.8831C36.4532 43.4327 37.2582 43.9809 38.2996 44.6636C38.565 44.8376 38.8184 45.0182 39.0652 45.1942C40.0044 45.8638 40.8482 46.4653 41.8907 46.3694C42.4964 46.3136 43.1221 45.7441 43.4399 44.0453C44.1909 40.0307 45.667 31.3321 46.0082 27.7476C46.0381 27.4336 46.0005 27.0317 45.9703 26.8553C45.9401 26.6788 45.877 26.4274 45.6476 26.2414C45.376 26.021 44.9567 25.9745 44.7692 25.9778C43.9166 25.9928 42.6085 26.4477 36.3131 29.0661Z" fill="#050505"/>
</g>
<defs>
<clipPath id="clip0_680_10338">
<rect width="45.3375" height="45.3375" fill="white" transform="translate(12.832 12.3311)"/>
</clipPath>
</defs>
</svg>
